# xmcd
#
# Track frame offsets:
#	150
#	13290
#	28361
#	44396
#	69096
#	79857
#	103940
#	121584
#	137019
#	149549
#	162076
#	172363
#
# Disc length: 2681 seconds
#
# Revision: 0
# Processed by: cddbd v1.5.2PL0 Copyright (c) Steve Scherf et al.
# Submitted via: EasyCDDAExtractor 10.1.0.1
#
DISCID=aa0a770c
DTITLE=The Animals - Animalism usa release
DYEAR=1966
DGENRE=Blues
TTITLE0=All Night Long
TTITLE1=Shake
TTITLE2=The Other Side Of Life
TTITLE3=Rock Me Baby
TTITLE4=Lucille
TTITLE5=Smoke Stack Lightning
TTITLE6=Hey Gyp
TTITLE7=Hit The Road Jack
TTITLE8=Ouctcast
TTITLE9=Louisana Blues
TTITLE10=That's all I Am To You
TTITLE11=Going Down Slow
EXTD=
EXTT0=
EXTT1=
EXTT2=
EXTT3=
EXTT4=
EXTT5=
EXTT6=
EXTT7=
EXTT8=
EXTT9=
EXTT10=
EXTT11=
PLAYORDER=
